<svg width="186" height="36" viewBox="0 0 186 36" fill="none" xmlns="http://www.w3.org/2000/svg">
<path d="M85.4287 8.625C84.048 8.625 82.9734 9.74231 82.9734 11.1253L83.028 24.8723C83.028 26.2529 84.0836 27.3726 85.469 27.3726H85.7537C87.1367 27.3726 88.254 26.2529 88.254 24.8723L88.1994 11.1253C88.1994 9.74231 87.0797 8.625 85.6967 8.625H85.4287ZM92.7137 8.64161C91.3521 8.64161 90.2466 9.7518 90.2466 11.1182V23.5486C90.2466 25.4108 92.0804 27.2066 93.9022 27.2066H103.529C104.897 27.2066 105.818 26.2102 106.594 24.8462L111.604 16.254C111.646 16.1592 111.729 16.0405 111.824 16.0405C111.929 16.0405 111.99 16.1592 112.043 16.2493L115.319 21.5061C115.456 21.7291 115.48 21.8406 115.395 22.0399C115.319 22.2225 115.136 22.2605 114.849 22.2605H110.249C108.878 22.2605 107.773 23.3683 107.773 24.7371V24.8913C107.773 26.2601 108.878 27.2066 110.249 27.2066H117.752C119.579 27.2066 121.638 25.4701 121.638 23.1975C121.638 21.7576 121.358 21.2476 120.158 19.2952L114.602 10.2476C113.95 9.19908 113.06 8.69142 111.938 8.69142C110.776 8.69142 109.794 9.23466 109.179 10.2476L102.746 20.9131C102.307 21.6437 101.802 21.9426 100.967 21.9426H96.1796C96.0903 21.9459 96.0013 21.9308 95.9181 21.8983C95.8349 21.8658 95.7593 21.8166 95.6959 21.7536C95.6325 21.6907 95.5827 21.6154 95.5496 21.5324C95.5165 21.4495 95.5008 21.3606 95.5035 21.2713L95.5082 11.1182C95.5082 9.7518 94.398 8.64161 93.0316 8.64161H92.7137ZM67.2077 8.98083C65.827 8.98083 64.705 10.0388 64.705 11.4195V11.595C64.705 12.9804 65.827 14.0977 67.2077 14.0977H78.9146C80.2928 14.0977 81.4172 12.9804 81.4172 11.595V11.4384C81.416 11.1122 81.3501 10.7895 81.2234 10.489C81.0966 10.1884 80.9115 9.91595 80.6787 9.68739C80.446 9.45884 80.1702 9.27871 79.8674 9.15743C79.5646 9.03615 79.2407 8.97612 78.9146 8.98083H67.2077ZM67.6513 15.6681C65.9338 15.6681 64.7074 17.0155 64.7074 18.612L64.705 24.9031C64.705 26.2719 65.8128 27.375 67.1768 27.375H67.4947C67.8195 27.3756 68.1412 27.3121 68.4414 27.1881C68.7416 27.0641 69.0143 26.8821 69.244 26.6524C69.4736 26.4227 69.6557 26.15 69.7797 25.8498C69.9037 25.5496 69.9672 25.2279 69.9666 24.9031V21.4445C69.9666 21.072 70.2655 20.7707 70.6379 20.7707H77.7047C79.0688 20.7707 80.179 19.6677 80.179 18.2989V18.1423C80.179 16.7759 79.0688 15.6681 77.7047 15.6681H67.6513Z" fill="white" fill-opacity="0.36"/>
</svg>
