<svg width="186" height="36" viewBox="0 0 186 36" fill="none" xmlns="http://www.w3.org/2000/svg">
<path fill-rule="evenodd" clip-rule="evenodd" d="M49.8824 23.651V25.762H34.1421V11.2444H36.9758V23.651H49.8824ZM47.679 16.5237L50.8263 11.5079H47.8361L45.475 16.5237H47.679ZM73.413 13.6274C72.3924 12.2805 70.9017 11.1482 69.1462 10.3767C67.3908 9.60466 65.3705 9.1934 63.3509 9.1934C61.3312 9.1934 59.3103 9.60466 57.5555 10.3767C55.8 11.1482 54.3087 12.2805 53.2881 13.6274C52.2675 14.9738 51.7164 16.5354 51.7164 18.097C51.7164 19.658 52.2675 21.2196 53.2881 22.566C54.3087 23.9129 55.7994 25.0452 57.5555 25.8167C59.311 26.5887 61.3312 27 63.3509 27C65.3705 27 67.3908 26.5893 69.1462 25.8167C70.9017 25.0452 72.3924 23.9129 73.413 22.566C74.4342 21.2196 74.9847 19.6575 74.9847 18.097C74.9847 16.5359 74.4342 14.9743 73.413 13.6274ZM70.9638 21.6521C70.2023 22.7084 69.088 23.5995 67.7728 24.2078C66.4576 24.8157 64.9423 25.1398 63.4263 25.1398C61.9103 25.1398 60.3949 24.8157 59.0797 24.2078C57.7652 23.5995 56.6508 22.7089 55.8887 21.6521C55.1266 20.5953 54.7173 19.3732 54.7173 18.1512C54.7173 16.9286 55.1266 15.7065 55.8887 14.6502C56.6508 13.5939 57.7645 12.7029 59.0797 12.095C60.3949 11.4866 61.9109 11.1625 63.4263 11.1625C64.9416 11.1625 66.4576 11.4866 67.7728 12.095C69.088 12.7029 70.2017 13.5934 70.9638 14.6502C71.7261 15.7063 72.1312 16.9166 72.1358 18.1512C72.131 19.3857 71.7259 20.5959 70.9638 21.6521ZM94.744 17.5051C94.2315 18.4508 93.2622 18.9976 92.5039 19.3281C91.7456 19.6591 91.1989 19.7739 90.6483 19.7574L96.1574 25.7625H93.0094L87.6816 19.9556H80.7319V25.7625H77.8989V11.2444H89.2312C90.3766 11.2444 91.5384 11.4335 92.5634 11.917C93.5885 12.4005 94.4754 13.1354 94.8922 14.1752C95.3085 15.2145 95.2552 16.5593 94.744 17.5051ZM91.5745 17.4057C92.1713 16.9828 92.5248 16.2872 92.4938 15.5976C92.4633 14.9074 92.0484 14.2241 91.4561 13.807C90.8631 13.3904 90.1054 13.3559 89.3889 13.3559H80.7319V17.8435H89.3889C90.1542 17.8435 90.9778 17.8292 91.5745 17.4057ZM111.11 17.4477V19.4269H101.509V23.651H114.415V25.762H98.6749V11.2444H114.415V13.3559H101.509V17.4477H111.11ZM111.267 9H107.017L105.286 10.848L111.267 9ZM119.965 22.0666L117.72 25.762H114.888L123.701 11.2438H126.535L135.35 25.762H132.516L130.273 22.0666H119.965ZM125.118 13.5774L121.085 20.2191H129.15L125.118 13.5774ZM152.505 23.651V25.762H136.766V11.2444H139.599V23.651H152.505ZM151.279 14.1577L151.254 13.8112C151.25 13.7475 151.257 13.6837 151.226 13.6114C151.194 13.5371 151.147 13.4682 151.086 13.4085C151.042 13.3635 150.98 13.3341 150.911 13.3261C151.034 13.2904 151.137 13.2196 151.203 13.1263C151.277 13.027 151.323 12.8957 151.321 12.7549C151.319 12.6141 151.268 12.4632 151.179 12.3517C150.985 12.1141 150.645 12.0738 150.347 12.0855H149.094V14.511H149.58V13.5147H150.308C150.387 13.5147 150.519 13.5057 150.652 13.5923C150.827 13.7661 150.749 13.9945 150.78 14.1885C150.783 14.3043 150.796 14.4138 150.853 14.511H151.4V14.4361C151.3 14.4015 151.291 14.2804 151.279 14.1577ZM150.678 13.0891C150.527 13.1699 150.371 13.1704 150.263 13.1688H149.576V12.4303C149.876 12.4335 150.178 12.4197 150.475 12.4399C150.543 12.4461 150.609 12.4669 150.665 12.5004C150.721 12.5339 150.766 12.5789 150.795 12.6311C150.858 12.7916 150.861 12.9638 150.678 13.0891Z" fill="white" fill-opacity="0.36"/>
<path fill-rule="evenodd" clip-rule="evenodd" d="M152.337 12.2665C152.124 11.9573 151.812 11.6959 151.444 11.5173C151.075 11.3388 150.649 11.2432 150.223 11.2432C149.798 11.2432 149.372 11.3388 149.003 11.5173C148.635 11.6959 148.323 11.9573 148.11 12.2665C147.897 12.5757 147.782 12.9328 147.782 13.2899C147.782 13.6469 147.897 14.004 148.11 14.3127C148.323 14.6214 148.635 14.8833 149.003 15.0619C149.372 15.2404 149.798 15.336 150.223 15.336C150.649 15.336 151.075 15.2404 151.444 15.0619C151.812 14.8833 152.124 14.6219 152.337 14.3127C152.55 14.0034 152.665 13.6469 152.665 13.2899C152.665 12.9328 152.55 12.5757 152.337 12.2665ZM152.045 14.1798C151.862 14.4434 151.6 14.6624 151.285 14.8153C150.97 14.9673 150.612 15.0476 150.248 15.048C149.884 15.0478 149.527 14.9675 149.212 14.8152C148.896 14.6628 148.634 14.4438 148.451 14.1798C148.27 13.9158 148.174 13.6164 148.174 13.3116C148.174 13.0069 148.27 12.7074 148.451 12.4434C148.727 12.0441 149.18 11.7529 149.711 11.6337C150.243 11.5145 150.809 11.5772 151.285 11.808C151.598 11.9594 151.863 12.181 152.045 12.4434C152.226 12.7076 152.322 13.0069 152.322 13.3116C152.322 13.6145 152.226 13.9174 152.045 14.1798Z" fill="white" fill-opacity="0.36"/>
</svg>
