<svg width="186" height="36" viewBox="0 0 186 36" fill="none" xmlns="http://www.w3.org/2000/svg">
<path d="M131.39 9.22363C137.403 9.22363 141.043 10.8756 141.043 13.9922C141.043 16.8837 138.126 18.0866 132.821 18.335C134.538 18.5498 136.34 19.1868 137.623 20.585C138.989 22.074 139.768 24.4097 141.332 25.5137C142.836 26.5755 144.247 26.789 144.475 26.7891L144.486 26.9531C144.463 26.9543 141.479 27.0988 138.861 26.6172C136.467 26.1765 135.507 24.425 134.173 21.9277C132.573 18.9395 130.23 18.4588 129.34 18.3682H128.488V22.3271C128.488 24.2769 128.741 25.0751 129.933 26.5322V26.5781H122.886V26.5322C124.077 25.075 124.33 24.2768 124.33 21.793V13.0996C124.33 11.6835 124.077 10.8829 122.886 9.42578V9.37988H123.809L127.105 9.3291C128.365 9.28702 129.259 9.22363 131.39 9.22363ZM54.1494 9.00293C57.9807 8.83416 61.1528 9.43961 63.9697 10.2363L64.0175 10.2969L62.5292 14.542L62.3788 14.5586C55.6308 7.7014 50.1495 9.90809 48.9423 10.3867C47.0117 11.1525 45.6409 12.9042 45.58 15.6553C45.4767 20.3221 48.6224 23.5205 54.0595 24.2529C60.2756 25.0903 64.3761 22.8023 64.4101 22.7832L64.666 22.8838C62.4112 25.1034 58.5456 27.1858 52.2656 26.626C45.8308 26.0523 41.6243 22.7189 41.3925 18.1953C41.1239 12.9464 45.942 9.36479 54.1494 9.00293ZM85.8427 9.16016C94.9078 9.16016 100.405 12.2379 100.405 17.8486C100.405 23.5071 95.199 26.585 85.8427 26.585H75.8671V26.5371C77.0322 25.2827 77.3232 24.0845 77.3232 22.4512V13.6328C77.3231 11.9995 77.0321 10.5574 75.8671 9.30273V9.25488C80.4182 9.25488 81.0371 9.16016 85.8427 9.16016ZM119.938 13.4561L119.647 13.5273C117.545 11.3052 115.096 9.83321 113.495 9.76172L107.342 9.59668V17.8066H110.474C112.257 17.8065 113.488 17.1948 114.987 15.3213H115.315V20.6719H114.987C113.688 18.8225 112.221 18.2804 110.474 18.2803H107.342V26.2168L113.822 26.0508C116.808 25.9794 119.464 24.3699 121.649 21.8125L121.94 21.8838L120.339 26.5713H101.699V26.5234C102.646 25.1033 103.118 23.6445 103.118 22.082V13.7305C103.118 12.1443 102.646 10.7333 101.699 9.28906V9.24121H118.518L119.938 13.4561ZM73.1972 9.21289C71.9958 10.6804 71.7597 12.0493 71.7402 13.4502V22.21C71.7402 24.175 71.9957 24.9796 73.1972 26.4473V26.4951H66.0976V26.4473C67.2988 24.9798 67.5536 24.1749 67.5536 22.21V13.4502C67.5536 12.0362 67.2987 10.6803 66.0976 9.21289V9.16504H73.1972V9.21289ZM81.5107 26.1826L85.5517 26.1113C93.0144 25.9926 95.4764 22.932 95.5527 18.0615C95.6394 12.5036 92.4687 9.63379 85.5146 9.63379H81.5107V26.1826ZM128.514 17.9346L131.018 17.8945C135.645 17.8294 136.882 16.9443 136.882 14.0908C136.882 10.8313 135.308 9.63477 130.994 9.63477L128.291 9.57617L128.514 17.9346Z" fill="white" fill-opacity="0.36"/>
</svg>
