<svg width="1416" height="212" viewBox="0 0 1416 212" fill="none" xmlns="http://www.w3.org/2000/svg">
<path d="M277.548 0C308.298 5.88462e-05 333.606 10.0271 353.47 30.0811C373.333 50.1351 383.265 75.4415 383.265 106C383.265 136.558 373.333 161.865 353.47 181.919C333.606 201.973 308.298 212 277.548 212C246.797 212 221.49 201.973 201.626 181.919C181.762 161.865 171.83 136.559 171.83 106C171.83 75.4414 181.762 50.1351 201.626 30.0811C221.49 10.0271 246.797 0 277.548 0ZM153.562 43.5605H97.6953V207.717H55.8672V43.5605H0V4.31152H153.562V43.5605ZM518.245 4.31152C541.547 4.31152 558.928 10.1368 570.388 21.7871C581.848 33.4376 587.578 48.7169 587.578 67.625C587.578 86.3421 581.657 101.526 569.815 113.177C558.165 124.827 540.974 130.652 518.245 130.652H472.979V207.717H431.15V4.31152H518.245ZM708.104 152.139H708.677L760.532 4.31152H806.372L729.304 207.717H686.329L609.262 4.31152H656.247L708.104 152.139ZM885.198 207.717H843.369V4.31152H885.198V207.717ZM1088.87 42.7012H984.296V85.3867H1084.57V123.776H984.296V169.328H1088.87V207.717H942.467V4.31152H1088.87V42.7012ZM1204.56 148.128H1205.14L1245.82 4.31152H1291.09L1331.77 148.128H1332.34L1370.16 4.31152H1416L1353.54 207.717H1309.42L1268.17 63.9004H1267.59L1226.34 207.717H1182.22L1119.76 4.31152H1166.75L1204.56 148.128ZM277.548 39.8213C259.403 39.8213 244.601 45.9338 233.141 58.1572C221.681 70.1896 215.95 86.137 215.95 106C215.95 125.863 221.681 141.906 233.141 154.13C244.6 166.162 259.403 172.179 277.548 172.179C295.693 172.179 310.495 166.162 321.955 154.13C333.415 141.906 339.145 125.863 339.145 106C339.145 86.1372 333.415 70.1896 321.955 58.1572C310.495 45.9339 295.693 39.8214 277.548 39.8213ZM472.979 92.2627H518.245C527.413 92.2627 534.289 90.0665 538.873 85.6738C543.457 81.281 545.749 75.2646 545.749 67.625C545.749 59.9854 543.457 53.969 538.873 49.5762C534.289 44.9926 527.413 42.7012 518.245 42.7012H472.979V92.2627Z" fill="url(#paint0_linear_4406_1890)"/>
<defs>
<linearGradient id="paint0_linear_4406_1890" x1="129" y1="-66" x2="76.7813" y2="207.717" gradientUnits="userSpaceOnUse">
<stop stop-color="white" stop-opacity="0.04"/>
<stop offset="1" stop-color="white" stop-opacity="0.16"/>
</linearGradient>
</defs>
</svg>
