<svg width="24" height="24" viewBox="0 0 24 24" fill="none" xmlns="http://www.w3.org/2000/svg">
<g clip-path="url(#clip0_4561_339)">
<path d="M6 16.333L9.44435 12.8886C9.94355 12.3894 10.7453 12.3659 11.273 12.8349L13.3333 14.6663M18 11.8397V7.73299C18 6.99661 17.403 6.39966 16.6667 6.39966H7.33333C6.59695 6.39966 6 6.99661 6 7.73299V16.2663C6 17.0027 6.59695 17.5997 7.33333 17.5997H12.6667" stroke="white" stroke-opacity="0.5" stroke-linejoin="round"/>
<path d="M14.7998 16.5997H19.1998M16.9998 14.3997V18.7997" stroke="white" stroke-opacity="0.5" stroke-linecap="round" stroke-linejoin="round"/>
<circle cx="14.3347" cy="9.66649" r="0.933333" fill="white" fill-opacity="0.5"/>
</g>
<defs>
<clipPath id="clip0_4561_339">
<path d="M0 9.6C0 6.23969 0 4.55953 0.653961 3.27606C1.2292 2.14708 2.14708 1.2292 3.27606 0.653961C4.55953 0 6.23969 0 9.6 0H14.4C17.7603 0 19.4405 0 20.7239 0.653961C21.8529 1.2292 22.7708 2.14708 23.346 3.27606C24 4.55953 24 6.23969 24 9.6V14.4C24 17.7603 24 19.4405 23.346 20.7239C22.7708 21.8529 21.8529 22.7708 20.7239 23.346C19.4405 24 17.7603 24 14.4 24H9.6C6.23969 24 4.55953 24 3.27606 23.346C2.14708 22.7708 1.2292 21.8529 0.653961 20.7239C0 19.4405 0 17.7603 0 14.4V9.6Z" fill="white"/>
</clipPath>
</defs>
</svg>
