<svg width="24" height="24" viewBox="0 0 24 24" fill="none" xmlns="http://www.w3.org/2000/svg">
<g clip-path="url(#clip0_4561_359)">
<path d="M12 5C15.866 5 19 8.13401 19 12C19 12.0915 18.9736 12.1762 18.9307 12.25C18.9736 12.3238 19 12.4085 19 12.5C19 13.8807 17.8807 15 16.5 15C15.6046 15 14.8214 14.5278 14.3799 13.8203C13.8316 14.5361 12.9713 15 12 15C10.3431 15 9 13.6569 9 12C9 10.3431 10.3431 9 12 9C12.7692 9 13.469 9.29156 14 9.76758V9.5C14 9.22386 14.2239 9 14.5 9C14.7761 9 15 9.22386 15 9.5V12.5C15 13.3284 15.6716 14 16.5 14C17.3284 14 18 13.3284 18 12.5C18 12.4087 18.0256 12.3237 18.0684 12.25C18.0256 12.1763 18 12.0913 18 12C18 8.68629 15.3137 6 12 6C8.68629 6 6 8.68629 6 12C6 15.3137 8.68629 18 12 18C12.6686 18 13.3109 17.8905 13.9102 17.6895C14.1719 17.6018 14.4552 17.7432 14.543 18.0049C14.6307 18.2666 14.4893 18.5499 14.2275 18.6377C13.5272 18.8726 12.778 19 12 19C8.13401 19 5 15.866 5 12C5 8.13401 8.13401 5 12 5ZM12 10C10.8954 10 10 10.8954 10 12C10 13.1046 10.8954 14 12 14C13.1046 14 14 13.1046 14 12C14 10.8954 13.1046 10 12 10Z" fill="white" fill-opacity="0.5"/>
</g>
<defs>
<clipPath id="clip0_4561_359">
<path d="M0 9.6C0 6.23969 0 4.55953 0.653961 3.27606C1.2292 2.14708 2.14708 1.2292 3.27606 0.653961C4.55953 0 6.23969 0 9.6 0H14.4C17.7603 0 19.4405 0 20.7239 0.653961C21.8529 1.2292 22.7708 2.14708 23.346 3.27606C24 4.55953 24 6.23969 24 9.6V14.4C24 17.7603 24 19.4405 23.346 20.7239C22.7708 21.8529 21.8529 22.7708 20.7239 23.346C19.4405 24 17.7603 24 14.4 24H9.6C6.23969 24 4.55953 24 3.27606 23.346C2.14708 22.7708 1.2292 21.8529 0.653961 20.7239C0 19.4405 0 17.7603 0 14.4V9.6Z" fill="white"/>
</clipPath>
</defs>
</svg>
