<svg width="24" height="24" viewBox="0 0 24 24" fill="none" xmlns="http://www.w3.org/2000/svg">
<path d="M12.375 5.375C8.5082 5.375 5.375 8.5082 5.375 12.375C5.375 16.2418 8.5082 19.375 12.375 19.375C16.2418 19.375 19.375 16.2418 19.375 12.375C19.375 8.5082 16.2418 5.375 12.375 5.375ZM18.4081 11.9083H16.5591C16.4789 9.88767 15.889 8.1022 14.9967 6.91033C16.8979 7.82407 18.2373 9.701 18.4081 11.9083ZM15.6183 11.9083H12.8417V6.3774C14.3415 6.77687 15.5007 9.06913 15.6183 11.9083ZM11.9083 6.3774V11.9083H9.13167C9.24927 9.06913 10.4085 6.77687 11.9083 6.3774ZM9.7542 6.91033C8.861 8.1022 8.27207 9.88767 8.1918 11.9083H6.34193C6.51273 9.701 7.85207 7.82407 9.7542 6.91033ZM6.34193 12.8417H8.19087C8.27113 14.8623 8.861 16.6478 9.75327 17.8397C7.85207 16.9259 6.51273 15.049 6.34193 12.8417ZM9.13167 12.8417H11.9083V18.3726C10.4085 17.9731 9.24927 15.6809 9.13167 12.8417ZM12.8417 18.3726V12.8417H15.6183C15.5007 15.6809 14.3415 17.9731 12.8417 18.3726ZM14.9958 17.8397C15.889 16.6478 16.4779 14.8623 16.5582 12.8417H18.4071C18.2373 15.049 16.8979 16.9259 14.9958 17.8397Z" fill="white"/>
</svg>
