<svg width="186" height="36" viewBox="0 0 186 36" fill="none" xmlns="http://www.w3.org/2000/svg">
<path d="M90.1002 16.2546C90.5082 15.9811 90.9677 15.7447 91.467 15.5513L90.0221 20.3276H88.9053C88.4758 19.9339 88.2571 19.451 88.2571 18.9104C88.2571 17.9919 88.9053 17.0471 90.1002 16.2546Z" fill="white" fill-opacity="0.36"/>
<path d="M92.4745 27.5918C95.9734 27.2034 99.4722 25.991 102.175 24.1802C103.112 23.5585 103.959 22.8784 104.705 22.1489L103.846 24.9727C103.729 25.0462 103.612 25.1197 103.51 25.1932C101.296 26.6641 98.6303 27.7926 95.7 28.4998H92.1855L92.4666 27.5971L92.4745 27.5918Z" fill="white" fill-opacity="0.36"/>
<path d="M115.202 16.7271C115.225 16.5434 115.249 16.3597 115.28 16.176H117.389L115.905 21.1308H113.483C114.382 19.6874 114.967 18.2073 115.202 16.7219V16.7271Z" fill="white" fill-opacity="0.36"/>
<path d="M114.233 16.176C114.21 16.3335 114.186 16.4909 114.155 16.6484C113.921 18.16 113.312 19.6664 112.359 21.1255H109.141C110.078 19.8134 110.703 18.4487 110.937 17.084C111 16.7849 111.039 16.4804 111.062 16.176H114.225H114.233Z" fill="white" fill-opacity="0.36"/>
<path d="M117.318 7.50513H120.325L119.278 10.9273C118.853 9.73403 118.197 8.58348 117.326 7.50513L117.318 7.50513Z" fill="white" fill-opacity="0.36"/>
<path d="M116.123 7.50513C116.611 8.06756 117.037 8.65352 117.396 9.25819C117.989 10.2646 118.404 11.3147 118.63 12.3864H114.835C114.22 10.5891 112.978 8.91593 111.211 7.50513L116.131 7.50513H116.123Z" fill="white" fill-opacity="0.36"/>
<path d="M110.016 16.176C109.992 16.449 109.961 16.7271 109.914 17.0053C109.657 18.391 109 19.7871 107.977 21.1255H105.634C106.611 19.9446 107.251 18.7111 107.524 17.4672C107.618 17.0316 107.665 16.6012 107.665 16.176H110.008H110.016Z" fill="white" fill-opacity="0.36"/>
<path d="M102.752 28.5001H98.3476C100.203 27.888 101.924 27.1074 103.463 26.1802L102.752 28.5001Z" fill="white" fill-opacity="0.36"/>
<path d="M88.6788 25.5032L88.2336 26.9728C85.9843 26.7419 84.0162 26.091 82.4542 25.0465C81.7754 24.5974 81.1966 24.0848 80.736 23.5244H83.821C83.9772 23.6451 84.1334 23.7554 84.2896 23.8656C85.5392 24.7054 87.0231 25.2512 88.6944 25.5032H88.6788Z" fill="white" fill-opacity="0.36"/>
<path d="M89.3036 23.5345L88.9131 24.8205C87.5477 24.6123 86.2874 24.1671 85.258 23.5293H89.3192L89.3036 23.5398V23.5345Z" fill="white" fill-opacity="0.36"/>
<path d="M76.0422 19.483C76.3858 17.1473 77.9166 14.7749 80.4158 12.6597L79.5567 15.3785H80.1815C79.01 16.8849 78.3852 18.4752 78.3852 20.0393V20.3332H78.0259L77.0731 23.5192H79.5489C80.0868 24.2678 80.8104 24.9494 81.6888 25.5347C83.407 26.6789 85.5626 27.3927 88.015 27.6446L87.7572 28.5002H83.4929C82.156 28.1118 80.9379 27.5601 79.9003 26.8731C77.0106 24.9468 75.6517 22.3225 76.05 19.4725L76.0422 19.483Z" fill="white" fill-opacity="0.36"/>
<path d="M92.9899 11.5205L92.7244 12.3813H89.6629C90.7046 11.9908 91.8254 11.7044 92.9899 11.531V11.5205Z" fill="white" fill-opacity="0.36"/>
<path d="M93.2242 10.7855C91.2952 11.0217 89.4208 11.5729 87.7338 12.3811H84.8909C87.4995 10.7121 90.6157 9.68333 93.6616 9.33691L93.2086 10.7855H93.2242Z" fill="white" fill-opacity="0.36"/>
<path d="M110.227 12.3864C109.524 11.0742 108.399 9.90377 106.868 8.89078C106.055 8.34961 105.139 7.88363 104.143 7.50513L109.828 7.50513C111.744 8.87735 113.1 10.5587 113.765 12.3864H110.211H110.227Z" fill="white" fill-opacity="0.36"/>
<path d="M104.236 10.6543C102.987 9.83029 101.487 9.22669 99.7612 8.86978C99.2844 8.77296 98.7993 8.69583 98.3085 8.63884L98.6366 7.50513H101.682C103.346 7.90812 104.86 8.54925 106.119 9.38415C107.431 10.2659 108.43 11.2737 109.086 12.3864H107.696L107.204 13.982L107.165 13.877C106.618 12.6698 105.627 11.5938 104.221 10.6543H104.236Z" fill="white" fill-opacity="0.36"/>
<path d="M99.9799 22.8733C104.947 19.5666 105.634 15.037 101.589 12.3392C100.495 11.6148 99.1443 11.1162 97.6213 10.8695L98.0899 9.32642C100.144 9.56786 102.018 10.1662 103.494 11.153C105.47 12.4651 106.54 14.0922 106.634 15.9083C106.658 16.3997 106.616 16.8915 106.509 17.3779C106.025 19.6033 104.221 21.8498 101.433 23.7026C98.9959 25.3296 95.8562 26.4581 92.701 26.8728L93.1305 25.4766C95.5673 25.1197 97.9728 24.2169 100.003 22.8733H99.9799Z" fill="white" fill-opacity="0.36"/>
<path d="M82.7979 19.6085C82.7979 18.1756 83.5164 16.7007 84.8285 15.3833H86.7185C86.1779 15.8425 85.724 16.3449 85.3674 16.8792C84.8441 17.656 84.5863 18.4538 84.5863 19.2411C84.5863 19.6085 84.641 19.9864 84.766 20.3433H82.8603C82.8213 20.1019 82.7979 19.8604 82.7979 19.6085Z" fill="white" fill-opacity="0.36"/>
<path d="M90.0065 15.3784C89.7827 15.4981 89.5689 15.626 89.3661 15.7616C87.9759 16.6906 87.2105 17.8086 87.2105 18.9108C87.2105 19.4251 87.3823 19.908 87.6948 20.3279H85.8438C85.6969 19.9689 85.6233 19.5981 85.6251 19.2257C85.6251 17.9135 86.5154 16.5279 88.0774 15.3837H90.0143L90.0065 15.3784Z" fill="white" fill-opacity="0.36"/>
<path d="M79.4473 20.0389C79.4473 18.4643 80.1112 16.8792 81.3686 15.3833H83.6022C82.4073 16.7165 81.7513 18.1808 81.7513 19.6137C81.7513 19.8604 81.7825 20.1019 81.8294 20.3381H79.4629C79.455 20.2402 79.4498 20.1422 79.4473 20.0441V20.0389Z" fill="white" fill-opacity="0.36"/>
<path d="M70.6532 21.0993C70.6532 22.6897 71.0906 24.217 71.9341 25.6237C72.5519 26.6599 73.3941 27.6291 74.4333 28.5H69.7707C69.2591 27.924 68.8152 27.3221 68.443 26.6997C67.8306 25.675 67.4109 24.603 67.1934 23.5085L70.3408 13.2263C71.9028 11.3053 73.9334 9.49975 76.417 7.85166C76.5967 7.73094 76.7763 7.61547 76.9637 7.5H81.4311C80.5668 7.96306 79.7403 8.45715 78.9553 8.98013C76.2608 10.7752 74.1756 12.7592 72.7463 14.8849C71.3639 16.9319 70.661 19.0313 70.661 21.0888L70.6532 21.0993Z" fill="white" fill-opacity="0.36"/>
<path d="M67.4824 26.9619C67.7954 27.4895 68.158 28.0031 68.568 28.4998H65.6548L66.6467 25.2771C66.8657 25.8483 67.1396 26.4093 67.4667 26.9567L67.4824 26.9619Z" fill="white" fill-opacity="0.36"/>
<path d="M97.676 17.6876C97.5979 18.5011 96.9965 19.3147 96.0125 19.9655C95.588 20.2463 95.11 20.4881 94.591 20.6846L96.1999 15.4622C96.3717 15.5356 96.5123 15.6196 96.6685 15.7088C97.4183 16.218 97.7853 16.916 97.6994 17.7033L97.676 17.6876Z" fill="white" fill-opacity="0.36"/>
<path d="M101.417 17.0999C101.417 15.8664 100.714 14.7537 99.3864 13.8719C98.7072 13.4214 97.8847 13.0804 96.9809 12.8747L97.3948 11.5415C98.7225 11.7515 99.894 12.1923 100.831 12.8274C104.471 15.2418 103.783 19.3515 99.2458 22.38C97.4963 23.5347 95.4345 24.3483 93.3414 24.7209L93.7319 23.435C95.372 23.1096 96.9106 22.4903 98.2071 21.6242C100.269 20.2491 101.409 18.6325 101.409 17.0999H101.417Z" fill="white" fill-opacity="0.36"/>
<path d="M97.4807 21.1309C96.4341 21.8342 95.2158 22.338 93.9896 22.653L94.3254 21.5507C95.2283 21.2887 96.0496 20.9148 96.7465 20.4485C97.918 19.6822 98.6209 18.7165 98.7303 17.7455C98.8474 16.7692 98.3788 15.8717 97.4026 15.2156C97.1148 15.028 96.7887 14.8689 96.4341 14.7432L96.7934 13.5623C97.4963 13.7407 98.1367 14.0084 98.6678 14.3653C99.7925 15.1159 100.386 16.0606 100.386 17.1051C100.386 18.4593 99.3551 19.8869 97.4963 21.1361L97.4807 21.1309Z" fill="white" fill-opacity="0.36"/>
<path d="M80.7282 12.3864C81.2529 11.9609 81.8081 11.5528 82.3917 11.1635C85.0471 9.39465 88.1399 8.17171 91.2952 7.50513H94.2239L93.8803 8.60735C90.2486 8.95901 86.695 10.182 83.8522 12.0872C83.696 12.1922 83.5554 12.2867 83.4148 12.3864H80.7282Z" fill="white" fill-opacity="0.36"/>
<path d="M73.6991 15.1682C75.0737 13.1212 77.0887 11.2107 79.6894 9.47863C80.7583 8.76283 81.9071 8.10307 83.1259 7.50513L88.4367 7.50513C88.2805 7.55761 88.1087 7.6101 87.9368 7.66259C85.6329 8.4184 83.5242 9.43139 81.6576 10.6701C79.6894 11.9823 78.1196 13.4099 76.9872 14.9215C75.8938 16.3911 75.2221 17.9028 75.0034 19.4144C74.5739 22.4586 76.05 25.2824 79.1584 27.3556C79.8049 27.7881 80.5198 28.1718 81.2905 28.4998H75.7922C74.5662 27.5777 73.5883 26.5192 72.9025 25.3716C72.1059 24.0385 71.7076 22.6003 71.7076 21.094C71.7076 19.1257 72.3792 17.1365 73.6991 15.163V15.1682Z" fill="white" fill-opacity="0.36"/>
<path d="M72.1059 7.50513H75.4642C73.746 8.65984 72.2621 9.88803 70.9813 11.1792L72.1059 7.50513Z" fill="white" fill-opacity="0.36"/>
</svg>
