<svg width="186" height="36" viewBox="0 0 186 36" fill="none" xmlns="http://www.w3.org/2000/svg">
<path fill-rule="evenodd" clip-rule="evenodd" d="M57.1675 22.673C56.9708 24.0312 55.9896 25.1199 54.4686 25.6642C53.6229 25.9685 52.4843 26.1316 51.584 26.0803C50.181 26.0345 48.8611 25.7485 47.646 25.2262C47.2112 25.0392 46.5643 24.6653 46.0661 24.3153C45.9393 24.2273 45.9262 24.1705 46.0092 24.0715C46.0551 24.0147 46.1382 23.912 46.3196 23.6866C46.5862 23.3603 46.6189 23.3182 46.6495 23.2797C46.7348 23.1697 46.8724 23.1606 47.0101 23.2504C47.0254 23.2595 47.0254 23.2595 47.0363 23.2669C47.0582 23.2815 47.0582 23.2815 47.1106 23.3163C47.1631 23.3512 47.1959 23.3713 47.209 23.3805C48.5202 24.2419 50.0477 24.7386 51.5883 24.7881C53.7343 24.7643 55.275 23.9542 55.5525 22.7133C55.8563 21.346 54.5779 20.1657 52.0735 19.5077C51.2911 19.3024 49.3112 18.6371 48.9463 18.4575C47.233 17.6144 46.431 16.5092 46.5468 15.1455C46.7217 13.254 48.8152 11.8446 51.4594 11.8354C52.6417 11.8336 53.8217 12.0389 54.9559 12.4403C55.358 12.5814 56.0748 12.9095 56.3217 13.0634C56.4638 13.1514 56.4922 13.254 56.4113 13.364C56.3654 13.4282 56.2911 13.529 56.1316 13.7416L56.1294 13.7434C55.9196 14.022 55.9131 14.0312 55.865 14.0953C55.782 14.2016 55.6836 14.2108 55.535 14.132C54.3222 13.4483 52.976 13.1037 51.4987 13.0799C49.6565 13.1111 48.2776 14.0293 48.1858 15.2812C48.1618 16.412 49.1736 17.2368 51.3567 17.8673C55.7907 19.0641 57.4865 20.4644 57.1675 22.673ZM51.6911 3.15139C54.5779 3.15139 56.9314 5.44978 57.0407 8.32551H46.3414C46.4507 5.44978 48.8043 3.15139 51.6911 3.15139ZM66.6321 8.8662C66.6321 8.56745 66.3458 8.32551 65.9918 8.32551H59.0556C58.8851 4.52786 55.653 1.5 51.6911 1.5C47.7291 1.5 44.497 4.52786 44.3265 8.32551H37.3816C37.0342 8.33101 36.7522 8.57112 36.7522 8.8662C36.7522 8.88087 36.7522 8.89369 36.7544 8.90836H36.7501L37.74 27.213C37.74 27.2643 37.7422 27.3156 37.7466 27.3669C37.7466 27.3779 37.7487 27.3908 37.7487 27.4018L37.7509 27.4403L37.7531 27.4421C37.9039 28.7159 39.0053 29.7423 40.5044 29.79L40.5088 29.7936H62.5411C62.5521 29.7936 62.563 29.7936 62.5717 29.7936C62.5805 29.7936 62.5936 29.7936 62.6023 29.7936H62.6482C64.1736 29.7588 65.4083 28.7177 65.5394 27.4293V27.4128C65.5416 27.3999 65.5416 27.3853 65.5438 27.3724C65.5459 27.3394 65.5481 27.3083 65.5481 27.2753L66.6277 8.89919C66.6321 8.88453 66.6321 8.87537 66.6321 8.8662ZM140.078 20.7962C140.502 19.6342 141.787 18.8607 143.284 18.8607C144.713 18.8607 146.075 19.6745 146.545 20.7944L146.577 20.8713H140.052L140.078 20.7962ZM148.031 22.4787C148.039 22.4787 148.039 22.4787 148.053 22.4787C148.066 22.4787 148.066 22.4787 148.079 22.4787C148.391 22.4659 148.638 22.2441 148.638 21.971C148.638 21.9582 148.638 21.9472 148.636 21.9289C148.636 21.9252 148.636 21.9197 148.636 21.8977C148.636 19.3336 146.239 17.2551 143.282 17.2551C140.325 17.2551 137.928 19.3336 137.928 21.8977C137.928 22.0883 137.941 22.279 137.967 22.4696L137.969 22.4806L137.978 22.5301C138.125 23.452 138.594 24.3006 139.335 24.9842L139.34 24.9879C140.161 25.7467 141.278 26.2636 142.515 26.4578L142.53 26.4597V26.4578L142.611 26.4688C142.653 26.4743 142.696 26.4798 142.755 26.489C144.386 26.654 145.83 26.456 147.054 25.9391C147.355 25.8127 147.626 25.6716 147.86 25.5231C147.937 25.4754 148.004 25.4296 148.063 25.3856C148.094 25.3636 148.118 25.3453 148.131 25.3343C148.407 25.096 148.424 25.0117 148.258 24.7936C148.074 24.548 147.913 24.3409 147.775 24.1668C147.727 24.1063 147.683 24.055 147.648 24.0128C147.629 23.989 147.629 23.989 147.615 23.9743L147.607 23.9652L147.605 23.9633C147.454 23.8057 147.351 23.7911 147.183 23.9157C147.165 23.9285 147.106 23.967 147.095 23.978C145.917 24.8541 144.311 25.1364 142.705 24.8559C142.406 24.7881 142.126 24.7038 141.868 24.5993C140.863 24.176 140.15 23.4227 139.943 22.5502L139.928 22.4806L148.031 22.4787ZM127.34 20.7962C127.764 19.6342 129.049 18.8607 130.546 18.8607C131.975 18.8607 133.337 19.6745 133.806 20.7944L133.839 20.8713H127.314L127.34 20.7962ZM135.29 22.4787C135.299 22.4787 135.299 22.4787 135.312 22.4787C135.325 22.4787 135.325 22.4787 135.338 22.4787C135.651 22.4659 135.898 22.2441 135.898 21.971C135.898 21.9582 135.898 21.9472 135.896 21.9289C135.896 21.9252 135.896 21.9197 135.896 21.8977C135.896 19.3336 133.498 17.2551 130.542 17.2551C127.585 17.2551 125.188 19.3336 125.188 21.8977C125.188 22.0883 125.201 22.279 125.227 22.4696L125.229 22.4806L125.238 22.5301C125.384 23.452 125.854 24.3006 126.595 24.9842L126.599 24.9879C127.421 25.7467 128.538 26.2636 129.775 26.4578L129.79 26.4597V26.4578L129.871 26.4688C129.912 26.4743 129.956 26.4798 130.015 26.489C131.645 26.654 133.09 26.456 134.313 25.9391C134.615 25.8127 134.886 25.6716 135.12 25.5231C135.196 25.4754 135.264 25.4296 135.323 25.3856C135.354 25.3636 135.378 25.3453 135.391 25.3343C135.666 25.096 135.684 25.0117 135.518 24.7936C135.334 24.548 135.172 24.3409 135.035 24.1668C134.987 24.1063 134.943 24.055 134.908 24.0128C134.888 23.989 134.888 23.989 134.875 23.9743L134.866 23.9652L134.864 23.9633C134.713 23.8057 134.611 23.7911 134.442 23.9157C134.425 23.9285 134.366 23.967 134.355 23.978C133.177 24.8541 131.571 25.1364 129.965 24.8559C129.665 24.7881 129.386 24.7038 129.128 24.5993C128.122 24.176 127.41 23.4227 127.205 22.5502L127.189 22.4806L135.29 22.4787ZM117.618 25.0356C115.627 25.0356 113.999 23.7122 113.948 22.0517V21.8959C113.999 20.239 115.627 18.9157 117.618 18.9157C119.646 18.9157 121.289 20.2867 121.289 21.9765C121.289 23.6664 119.643 25.0356 117.618 25.0356ZM117.618 17.2918C116.311 17.2918 115.063 17.6657 114.06 18.3493L113.946 18.4263V17.5704C113.946 17.3413 113.887 17.2918 113.612 17.2918H112.329C112.049 17.2918 111.995 17.3376 111.995 17.5704V31.2214C111.995 31.445 112.058 31.5 112.329 31.5H113.612C113.885 31.5 113.946 31.4468 113.946 31.2214V25.5286L114.06 25.6056C115.063 26.2892 116.311 26.6631 117.618 26.6631C120.723 26.6631 123.238 24.5645 123.238 21.9765C123.238 19.3904 120.723 17.2918 117.618 17.2918ZM104.418 24.9311C102.386 24.9311 100.74 23.5729 100.74 21.8977C100.74 20.2225 102.388 18.8644 104.418 18.8644C106.448 18.8644 108.096 20.2225 108.096 21.8977C108.096 23.5729 106.448 24.9311 104.418 24.9311ZM104.418 17.2533C101.309 17.2533 98.7868 19.3336 98.7868 21.8996C98.7868 24.4655 101.309 26.5458 104.418 26.5458C107.528 26.5458 110.05 24.4655 110.05 21.8996C110.05 19.3336 107.53 17.2533 104.418 17.2533ZM91.8659 17.3578C90.7295 17.3578 89.6325 17.6639 88.7212 18.2302L88.6098 18.2999V11.96C88.6098 11.7493 88.5267 11.6815 88.2776 11.6815H86.9358C86.6648 11.6815 86.6036 11.7364 86.6036 11.96V26.423C86.6036 26.6411 86.6714 26.7016 86.9358 26.7016H88.2776C88.5267 26.7016 88.6098 26.6301 88.6098 26.423V21.6998C88.6229 20.2133 90.0783 19.0128 91.8659 19.0128C93.6578 19.0128 95.1154 20.2188 95.122 21.7108V26.4249C95.122 26.665 95.1701 26.7034 95.4542 26.7034H96.7916C97.0757 26.7034 97.1237 26.6631 97.1237 26.4249V21.6979C97.115 19.3097 94.7439 17.3578 91.8659 17.3578ZM73.1705 24.077L73.1683 24.0806C72.976 24.3244 72.8974 24.4252 72.8515 24.4839C72.7007 24.6727 72.7203 24.757 72.9498 24.9201C73.4874 25.283 74.1779 25.6661 74.6434 25.8567C75.9393 26.3882 77.3401 26.6705 78.8261 26.6943C79.7855 26.7346 80.9896 26.544 81.8855 26.2086C83.5092 25.6019 84.5429 24.4179 84.7243 22.9589C85.0171 20.5964 83.1858 19.1191 78.4633 17.9278H78.4612C76.2605 17.3321 75.2269 16.5422 75.2269 15.4369C75.2925 14.2163 76.6408 13.3035 78.4612 13.2467C79.9275 13.2504 81.2234 13.5766 82.4974 14.2639C82.7662 14.4014 82.8908 14.3757 83.07 14.1796C83.0897 14.1503 83.1487 14.0806 83.389 13.7892V13.7874C83.6141 13.5161 83.6884 13.4245 83.7081 13.3988C83.8611 13.1587 83.8392 13.0652 83.5639 12.9021C83.2929 12.739 82.5302 12.4073 82.0953 12.2606C80.8825 11.8556 79.6303 11.6576 78.3825 11.6778C75.5438 11.7291 73.33 13.2779 73.1836 15.3087C73.0918 16.7749 73.9791 17.9553 75.8344 18.8277C76.3545 19.0587 78.2557 19.6598 79.143 19.8779C81.667 20.4974 82.9826 21.6375 82.7094 22.9828C82.4625 24.2053 80.9349 25.0172 78.7933 25.074C77.2396 25.0466 75.6749 24.57 74.3156 23.7122C74.3091 23.7086 74.2741 23.6866 74.2107 23.6463C74.1211 23.5913 74.1211 23.5913 74.108 23.5821C73.8305 23.4208 73.6688 23.4355 73.4983 23.6463C73.4852 23.6756 73.2732 23.945 73.1705 24.077Z" fill="white" fill-opacity="0.36"/>
</svg>
