<svg width="186" height="36" viewBox="0 0 186 36" fill="none" xmlns="http://www.w3.org/2000/svg">
<path d="M58.5446 18.1499H49.8151V12.2214H44.9188V25.5791H49.8147V19.0794H58.5442V25.5788H63.4414V12.2214H58.5442L58.5446 18.1499ZM69.0844 25.5791H73.9811V12.2217H69.0844V25.5791ZM78.5554 25.1746C77.7035 25.1746 76.6421 24.9361 75.8965 24.5072L75.1518 25.3648C76.1105 25.8648 77.627 26.222 79.4106 26.222C84.1911 26.222 87.9372 24.1774 90.2785 18.7483C92.302 14.0344 93.6756 12.8644 96.4433 12.8644C97.256 12.8644 98.1476 13.0079 98.7867 13.2933L99.3187 12.365C98.4536 12.0438 97.0428 11.8645 95.6585 11.8645C90.9737 11.8645 87.2187 13.6539 84.9808 18.607C82.538 24.0171 81.3526 25.1746 78.5554 25.1746ZM168.198 18.9364C168.198 22.508 166.069 25.0071 161.811 25.0071C157.552 25.0071 155.316 22.508 155.316 18.9364C155.316 15.3648 157.552 12.7934 161.811 12.7934C166.069 12.7934 168.198 15.3643 168.198 18.9364ZM173.2 18.9367C173.2 13.7226 166.706 12.0078 161.811 12.0078C156.912 12.0078 150.312 13.7226 150.312 18.9364C150.312 24.1502 156.912 25.7936 161.811 25.7936C166.707 25.7933 173.2 24.1508 173.2 18.9367ZM132.427 13.0789H133.704C138.708 13.0789 142.435 14.508 142.435 18.9364C142.435 23.2923 138.708 24.7214 133.704 24.7214H132.427V13.0789ZM127.53 25.5788H134.343C140.838 25.5788 147.437 24.0787 147.437 18.9361C147.437 13.7223 140.838 12.2212 134.343 12.2212H127.53V25.5788ZM105.386 24.6502V19.0794H112.839V18.1499H105.386V13.1506H113.371V12.2214H100.49V25.5791H113.691V24.6502H105.386ZM116.991 25.5791H121.887V12.2217H116.991V25.5791Z" fill="white" fill-opacity="0.36"/>
<path d="M30.0138 17.4373C26.6077 23.4362 24.4771 25.7222 20.0064 25.7222C17.3855 25.7222 15.1322 24.7465 13.9979 23.781L12.7998 24.6203C14.1734 25.77 17.2075 26.9365 21.058 26.9365C28.0845 26.9365 32.0364 24.4358 35.5501 17.9356C38.6365 12.2215 40.8723 10.0082 45.5567 10.0082C47.1537 10.0082 48.7508 10.3643 49.8151 11.0083L50.6674 10.0788C49.1767 9.29346 46.7278 8.93652 44.7047 8.93652C38.4234 8.93652 33.5266 11.1505 30.0138 17.4373Z" fill="white" fill-opacity="0.36"/>
</svg>
