<svg width="186" height="36" viewBox="0 0 186 36" fill="none" xmlns="http://www.w3.org/2000/svg">
<path d="M63.6263 23.8712V7.99023H74.8079V9.97965H65.9382V14.8624H73.9106V16.8518H65.9382V21.8334H75.4262V23.8228H63.6384L63.6263 23.8712ZM87.1851 23.8712L83.3384 19.6594L79.511 23.8722H76.7998L82.0622 18.2389L76.5207 12.4049H79.5699L83.3565 16.7681L87.2031 12.4049H90.1934L84.931 18.2389L89.8939 23.8722L87.1851 23.8712ZM93.6227 22.1562V29.9999H91.3108V18.2975C91.3108 15.3053 94.022 12.1285 98.2668 12.1285C102.553 12.1285 105.781 14.4024 105.781 18.1461C105.781 21.79 102.512 24.3151 98.7852 24.3151C96.9714 24.3151 94.5392 23.6463 93.6227 22.1764V22.1562ZM103.349 18.127C103.349 15.5696 101.376 14.0483 97.8675 14.1986C96.1835 14.249 93.5818 15.2851 93.8019 18.9401C93.862 20.1275 95.3367 22.3499 98.5459 22.3499C101.316 22.3671 103.35 21.0384 103.35 18.137L103.349 18.127ZM107.756 23.8611V12.4029H110.068V13.6397C111.205 12.5532 112.958 12.1688 114.812 12.1688V14.2571C114.533 14.2066 111.763 13.9242 110.068 16.9648V23.9257H107.756V23.8611ZM115.448 18.136C115.448 14.8271 118.278 12.1184 122.165 12.1184C127.028 12.1184 128.822 14.8261 128.822 18.2874V19.2407H117.98C118.161 21.4137 120.47 22.5497 122.604 22.5174C124.167 22.4669 125.255 22.0836 126.39 21.1454L127.925 22.4569C126.509 23.5938 124.697 24.3454 122.504 24.3454C118.378 24.2949 115.448 21.7376 115.448 18.127V18.136ZM121.986 14.0573C119.772 14.0573 118.079 15.6715 117.98 17.4167H126.392C126.392 15.728 124.947 14.0573 121.986 14.0573Z" fill="white" fill-opacity="0.36"/>
<path d="M130.018 22.2662L131.702 20.979C131.642 20.979 132.56 21.7316 132.658 21.781C133.028 22.0568 133.473 22.2519 133.954 22.349C135.429 22.6819 138.08 22.583 138.299 20.8781C138.419 19.9247 137.561 19.4072 136.615 19.0622C135.379 18.6788 134.024 18.5437 132.768 18.0594C131.352 17.5409 130.456 16.6471 130.456 15.3174C130.456 11.8571 136.335 11.2881 138.987 12.8932L140.342 13.9797L138.658 15.1167C137.801 14.2642 137.022 13.8294 135.21 13.8294C134.312 13.8294 133.045 14.1623 132.838 14.9663C132.498 16.1033 134.033 16.5381 135.051 16.7822C136.406 17.0667 137.881 17.2503 139.056 17.8687C140.692 18.7212 141.101 20.5764 140.472 21.9979C139.795 23.5696 137.761 24.1709 135.947 24.2213C133.782 24.3222 131.942 23.7533 130.405 22.466C130.306 22.4993 130.027 22.2642 130.027 22.2642L130.018 22.2662Z" fill="white" fill-opacity="0.36"/>
<path d="M141.938 22.2662L143.622 20.979C143.562 20.979 144.48 21.7316 144.578 21.781C144.948 22.0568 145.393 22.2519 145.874 22.349C147.349 22.6819 150 22.583 150.219 20.8781C150.339 19.9247 149.481 19.4072 148.535 19.0622C147.299 18.6788 145.944 18.5437 144.688 18.0594C143.272 17.5409 142.376 16.6471 142.376 15.3174C142.376 11.8571 148.256 11.2881 150.907 12.8932L152.262 13.9797L150.578 15.1167C149.721 14.2642 148.942 13.8294 147.13 13.8294C146.232 13.8294 144.965 14.1623 144.758 14.9663C144.418 16.1033 145.953 16.5381 146.971 16.7822C148.326 17.0667 149.801 17.2503 150.976 17.8687C152.612 18.7212 153.021 20.5764 152.392 21.9979C151.715 23.5696 149.681 24.1709 147.867 24.2213C145.702 24.3222 143.862 23.7533 142.326 22.466C142.226 22.4993 141.947 22.2642 141.947 22.2642L141.938 22.2662Z" fill="white" fill-opacity="0.36"/>
<path d="M47.9197 23.8714L46.2357 20.0762H37.0773L35.3934 23.8714H32.9636L40.319 7.99042H42.97L50.2652 23.8714H47.9197ZM41.5398 10.2805L38.0913 18.1544H45.2662L41.5398 10.2805ZM51.7664 23.8714V7.99042H54.1383V23.8714H51.7664ZM57.706 23.8714V12.6482H60.0779V23.8815L57.706 23.8714ZM62.3297 8.9932V8.79143C60.5158 8.74099 59.0603 7.50417 59.0014 6H58.6442C58.584 7.52132 57.1093 8.742 55.3159 8.79143V8.9932C57.1298 9.04364 58.5852 10.2805 58.6442 11.7846H59.0026C59.0334 11.0525 59.394 10.3574 60.0116 9.83942C60.6292 9.32142 61.4568 9.01903 62.3297 8.9932Z" fill="white" fill-opacity="0.36"/>
</svg>
