<svg width="186" height="36" viewBox="0 0 186 36" fill="none" xmlns="http://www.w3.org/2000/svg">
<path d="M152.777 22.2422C153.362 22.7816 154.134 23.0723 154.929 23.0527C155.337 23.0696 155.743 23.0014 156.123 22.8525C156.503 22.7036 156.848 22.4772 157.136 22.1878C157.424 21.8984 157.648 21.5522 157.795 21.1713C157.941 20.7905 158.007 20.3833 157.988 19.9756C158.003 19.5538 157.931 19.1335 157.778 18.7402C157.625 18.3468 157.394 17.9887 157.099 17.6875C156.82 17.4 156.485 17.1728 156.115 17.0199C155.745 16.8669 155.347 16.7914 154.947 16.7981C154.53 16.7861 154.115 16.8606 153.728 17.0171C153.342 17.1736 152.992 17.4086 152.701 17.7072C152.409 18.0058 152.183 18.3616 152.037 18.752C151.89 19.1425 151.826 19.5591 151.848 19.9756C151.826 20.3985 151.898 20.8211 152.059 21.213C152.219 21.6049 152.465 21.9564 152.777 22.2422ZM151.827 15.195V16.6726C152.454 15.6182 153.77 14.9941 155.126 14.9941C155.751 14.983 156.372 15.0993 156.95 15.3361C157.528 15.5729 158.052 15.9251 158.49 16.3713C158.952 16.8439 159.312 17.4057 159.549 18.0224C159.786 18.6391 159.894 19.2976 159.867 19.9577C159.892 20.611 159.782 21.2624 159.545 21.8718C159.308 22.4811 158.949 23.0356 158.49 23.501C158.052 23.9457 157.528 24.2955 156.949 24.5287C156.37 24.7619 155.75 24.8735 155.126 24.8566C153.749 24.8566 152.415 24.29 151.827 23.2356V29.2499H149.983V15.195H151.827ZM145.705 17.648C145.411 17.3675 145.064 17.148 144.685 17.0021C144.306 16.8562 143.902 16.7869 143.495 16.7981C142.67 16.779 141.871 17.0841 141.268 17.648C140.972 17.9402 140.739 18.2911 140.586 18.6784C140.433 19.0656 140.362 19.4806 140.379 19.8967C140.362 20.3219 140.433 20.746 140.586 21.1431C140.739 21.5402 140.971 21.902 141.268 22.2063C141.563 22.4925 141.912 22.7171 142.294 22.8667C142.676 23.0164 143.085 23.0881 143.495 23.0778C143.904 23.0898 144.31 23.0188 144.69 22.8689C145.069 22.7191 145.415 22.4937 145.705 22.2063C146.009 21.9067 146.247 21.5467 146.404 21.1496C146.561 20.7525 146.633 20.3269 146.616 19.9003C146.633 19.4822 146.561 19.0652 146.403 18.6774C146.246 18.2895 146.008 17.9398 145.705 17.6516V17.648ZM139.967 16.3498C140.932 15.4765 142.188 14.9931 143.49 14.9931C144.792 14.9931 146.048 15.4765 147.014 16.3498C147.489 16.8063 147.862 17.3579 148.109 17.9684C148.356 18.579 148.472 19.2348 148.448 19.8931C148.471 20.56 148.353 21.2241 148.101 21.8421C147.85 22.4601 147.471 23.0181 146.989 23.4795C146.037 24.3653 144.785 24.8578 143.485 24.8578C142.185 24.8578 140.933 24.3653 139.981 23.4795C139.504 23.0157 139.129 22.4568 138.882 21.8389C138.635 21.221 138.521 20.5581 138.546 19.8931C138.521 19.2347 138.636 18.5784 138.884 17.9676C139.131 17.3569 139.505 16.8055 139.981 16.3498H139.967ZM130.244 24.6415H128.4V10.0449H130.244V16.608C130.517 16.0666 130.977 15.6424 131.539 15.4137C132.108 15.1428 132.73 14.9973 133.36 14.9869C135.727 14.9869 137.209 16.5255 137.187 19.1794V24.6415H135.344V19.3085C135.344 17.77 134.433 16.7981 133.117 16.7981C132.389 16.7875 131.68 17.031 131.112 17.4866C130.524 17.9314 130.24 18.6199 130.24 19.5524V24.6415H130.244ZM119.087 20.6211C119.104 20.953 119.19 21.2777 119.34 21.5742C119.49 21.8708 119.701 22.1325 119.958 22.3426C120.546 22.8535 121.306 23.1215 122.085 23.0921C123.767 23.0921 124.717 22.2027 124.9 21.0479C125.001 19.6707 123.989 18.8961 122.53 18.559L120.736 18.1143C118.47 17.5261 117.336 16.3115 117.336 14.4705C117.324 13.9294 117.439 13.3928 117.671 12.9039C117.903 12.415 118.247 11.9873 118.674 11.6552C119.563 10.9088 120.695 10.5133 121.855 10.5434C123.035 10.5021 124.188 10.9068 125.083 11.6767C125.503 12.0427 125.836 12.4981 126.057 13.0095C126.278 13.5209 126.381 14.0752 126.36 14.6319H124.477C124.477 13.2547 123.401 12.3438 121.845 12.3438C121.182 12.3334 120.535 12.54 120.001 12.932C119.759 13.103 119.562 13.3305 119.428 13.5949C119.293 13.8593 119.225 14.1525 119.23 14.449C119.23 15.4209 119.897 16.07 121.213 16.3928L123.035 16.8375C125.686 17.5046 127.023 19.0252 126.761 21.2129C126.706 21.7211 126.551 22.2134 126.305 22.6615C126.059 23.1095 125.726 23.5045 125.327 23.8238C124.409 24.5428 123.264 24.9092 122.099 24.8566C120.821 24.897 119.575 24.4481 118.617 23.6014C118.182 23.2363 117.831 22.781 117.59 22.267C117.348 21.753 117.222 21.1926 117.218 20.6247H119.101L119.087 20.6211Z" fill="white" fill-opacity="0.36"/>
<path d="M33.7849 13.703V12.8351C33.495 12.7938 33.2026 12.7723 32.9098 12.7705C31.5318 12.7692 30.1894 13.2076 29.0778 14.022C27.9662 14.8364 27.1435 15.9843 26.7294 17.2986C26.3153 18.6129 26.3314 20.0251 26.7754 21.3296C27.2194 22.6341 28.068 23.7629 29.1979 24.5517L29.1083 24.4549C28.0595 23.2678 27.486 21.7352 27.498 20.1513C27.4929 18.4689 28.1484 16.8518 29.3235 15.6479C30.4986 14.444 32.0993 13.7494 33.7813 13.7137L33.7849 13.703Z" fill="white" fill-opacity="0.36"/>
<path d="M44.2858 10.9882V10.149C43.3394 10.1497 42.4133 9.87426 41.6212 9.3564C42.3112 10.173 43.2453 10.7463 44.2858 10.9918V10.9882ZM33.9392 23.1209C34.7085 23.1152 35.4462 22.8144 36.0001 22.2805C36.5541 21.7466 36.8818 21.0204 36.9158 20.2518V6.17529H39.4693V6.14301C39.4144 5.84852 39.3868 5.54957 39.3869 5.25H35.8686V19.3516C35.8515 19.8511 35.7078 20.3381 35.451 20.767C35.1942 21.1958 34.8327 21.5523 34.4004 21.8032C33.9682 22.0541 33.4793 22.1912 32.9795 22.2015C32.4798 22.2117 31.9857 22.095 31.5435 21.8621C31.8153 22.2468 32.1745 22.5615 32.5916 22.7803C33.0087 22.9991 33.4717 23.1159 33.9427 23.1209H33.9392Z" fill="white" fill-opacity="0.36"/>
<path d="M61.339 14.0116C61.7288 14.0134 62.1071 13.8799 62.4093 13.6337C62.7116 13.3876 62.9189 13.0441 62.9959 12.662C63.073 12.2799 63.0149 11.8829 62.8317 11.5389C62.6484 11.1948 62.3514 10.9251 61.9913 10.7758C61.6313 10.6265 61.2305 10.6069 60.8576 10.7204C60.4847 10.8338 60.1628 11.0732 59.9468 11.3977C59.7309 11.7222 59.6343 12.1117 59.6737 12.4995C59.7131 12.8872 59.8859 13.2493 60.1627 13.5238C60.3157 13.6803 60.4987 13.8042 60.7009 13.888C60.9031 13.9719 61.1201 14.0139 61.339 14.0116ZM99.7132 10.6081H103.049V17.1317L106.355 13.886H110.34L106.154 17.9458L110.827 24.6416H107.144L104.017 19.9793L103.027 20.9404V24.6416H99.6916V10.6081H99.7132ZM64.348 10.6081H67.6869V17.1317L70.9935 13.886H74.978L70.7783 17.9458L75.4657 24.6416H71.7861L68.6588 19.9793L67.6689 20.9404V24.6416H64.3336V10.6081H64.348ZM59.6857 15.1018H63.0282V24.6416H59.7108L59.6893 15.0911L59.6857 15.1018ZM76.1041 10.6547H86.7664L85.8088 13.6386H82.8716V24.6416H79.4968V13.6278H76.1077V10.6547H76.1041ZM48.611 10.6547H59.033L58.0754 13.6386H55.3713V24.6416H52.0001V13.6278H48.611V10.6547ZM39.3904 19.262V12.0893C40.8102 13.1273 42.5271 13.6795 44.2858 13.6637V10.9309C43.2469 10.7156 42.3093 10.1604 41.6211 9.35286C41.056 9.00031 40.572 8.53195 40.2011 7.97867C39.8301 7.4254 39.5807 6.79978 39.4693 6.14307H36.8907V20.2447C36.8619 21.0087 36.5386 21.732 35.9883 22.2628C35.4381 22.7937 34.7037 23.0909 33.9391 23.0923C33.4677 23.1052 33.0006 22.999 32.5811 22.7833C32.1617 22.5676 31.8035 22.2495 31.5398 21.8585C30.9575 21.5501 30.4949 21.056 30.2252 20.4548C29.9556 19.8535 29.8944 19.1795 30.0513 18.5395C30.2082 17.8995 30.5742 17.3302 31.0914 16.9218C31.6086 16.5135 32.2473 16.2895 32.9062 16.2853C33.2032 16.2859 33.4982 16.3319 33.7813 16.4216V13.6637C32.5299 13.6847 31.3116 14.0691 30.2747 14.7699C29.2378 15.4708 28.427 16.458 27.941 17.6113C27.455 18.7646 27.3147 20.0344 27.5372 21.266C27.7597 22.4976 28.3354 23.638 29.1943 24.5483C30.277 25.3204 31.5765 25.7297 32.9062 25.7175C34.6234 25.7156 36.2698 25.0326 37.484 23.8183C38.6983 22.6041 39.3813 20.9577 39.3832 19.2405L39.3904 19.262Z" fill="white" fill-opacity="0.36"/>
<path d="M86.3433 18.9357C86.3425 17.4969 86.8846 16.1109 87.8613 15.0544C88.838 13.998 90.1773 13.3489 91.6117 13.2369C91.4443 13.225 91.2769 13.219 91.1096 13.219C89.5934 13.219 88.1393 13.8213 87.0673 14.8934C85.9952 15.9655 85.3929 17.4195 85.3929 18.9357C85.3929 20.4518 85.9952 21.9059 87.0673 22.978C88.1393 24.0501 89.5934 24.6524 91.1096 24.6524C91.2602 24.6524 91.4682 24.6523 91.6117 24.6344C90.1776 24.5216 88.8388 23.8723 87.8622 22.816C86.8857 21.7598 86.3434 20.3742 86.3433 18.9357Z" fill="white" fill-opacity="0.36"/>
<path d="M92.9063 13.2189C92.7557 13.2189 92.5477 13.2189 92.4006 13.2368C93.8297 13.3559 95.1618 14.0076 96.1329 15.0629C97.1039 16.1181 97.6428 17.4998 97.6428 18.9338C97.6428 20.3678 97.1039 21.7495 96.1329 22.8047C95.1618 23.86 93.8297 24.5117 92.4006 24.6307C92.5513 24.6307 92.7593 24.6487 92.9063 24.6487C94.4225 24.6487 95.8765 24.0464 96.9486 22.9743C98.0207 21.9022 98.623 20.4482 98.623 18.932C98.623 17.4159 98.0207 15.9618 96.9486 14.8897C95.8765 13.8176 94.4225 13.2153 92.9063 13.2153V13.2189Z" fill="white" fill-opacity="0.36"/>
<path d="M92.0061 21.7151C91.3166 21.7121 90.6529 21.453 90.1438 20.988C89.6347 20.5231 89.3166 19.8855 89.2513 19.1991C89.1859 18.5128 89.378 17.8266 89.7902 17.274C90.2025 16.7213 90.8054 16.3416 91.4819 16.2085C92.1584 16.0755 92.8602 16.1986 93.451 16.554C94.0418 16.9094 94.4794 17.4717 94.6788 18.1317C94.8783 18.7917 94.8253 19.5022 94.5302 20.1253C94.2351 20.7485 93.7189 21.2397 93.082 21.5035C92.7411 21.6455 92.3753 21.7174 92.0061 21.7151ZM92.0061 13.219C90.5869 13.2197 89.2188 13.7483 88.1677 14.7019C87.1167 15.6555 86.4579 16.9659 86.3195 18.3783C86.1812 19.7907 86.5731 21.2041 87.4191 22.3435C88.2651 23.483 89.5047 24.267 90.8967 24.5431C92.2887 24.8192 93.7337 24.5677 94.9506 23.8375C96.1674 23.1072 97.0692 21.9505 97.4804 20.5922C97.8916 19.2339 97.7829 17.7712 97.1755 16.4887C96.568 15.2061 95.5052 14.1953 94.1938 13.653C93.5005 13.3647 92.7569 13.2172 92.0061 13.219Z" fill="white" fill-opacity="0.36"/>
</svg>
