<svg width="186" height="36" viewBox="0 0 186 36" fill="none" xmlns="http://www.w3.org/2000/svg">
<path d="M134.956 18.5309C137.115 16.8724 138.054 15.1356 137.913 12.9138C137.694 9.6749 135.081 7.5 132.109 7.5H123.597V26.2448H126.976V18.5309H130.982L135.77 26.2448H139.76L134.956 18.5309ZM134.628 12.9294C134.628 14.3689 133.626 15.2138 132.093 15.2138H126.976V10.8171H132.093C134.033 10.8015 134.628 12.1471 134.628 12.9294ZM97.8109 19.2351L102.176 26.2291H106.198L99.9858 16.2935L97.8109 19.2351ZM104.977 7.5H100.674L91.8182 19.3446V7.5H88.4229V24.5862C88.4229 25.2121 88.7827 25.9944 89.7528 26.2135C90.144 26.3074 90.9107 26.2135 91.3801 25.5876C91.4427 25.525 104.977 7.5 104.977 7.5ZM112.519 18.5309H119.2V15.2138H112.519V18.5309ZM120.921 7.5H107.653V24.5862C107.653 25.0243 107.825 25.4468 108.138 25.7597C108.451 26.0727 108.873 26.2448 109.311 26.2448H120.921V22.9277H111.048V10.8171H120.921V7.5ZM81.6165 7.5V19.3446L72.7605 7.5H68.442V26.2448H71.8373V11.9906C75.8585 17.3418 82.0233 25.5563 82.0703 25.6033C82.5397 26.2135 83.3064 26.3074 83.6975 26.2291C84.6676 26.0101 85.0275 25.2277 85.0275 24.6019V7.5H81.6165ZM54.5946 8.50139L45.8794 26.2448H49.6816L56.2375 12.9294L62.7935 26.2448H66.5487L57.9117 8.56398C57.7553 8.25104 57.5049 7.9694 57.2076 7.78164C56.9103 7.59388 56.5661 7.5 56.2062 7.5C55.8777 7.5 55.5491 7.59388 55.2518 7.76599C54.9701 7.93811 54.7511 8.2041 54.5946 8.50139ZM59.3199 23.5848H57.0668H57.0512C57.0512 23.5848 57.0355 23.5848 57.0355 23.5692V23.5535V23.5379L57.4736 18.7187C57.4736 18.7031 57.4736 18.7031 57.4736 18.7031L57.458 18.6874H57.4423C57.4423 18.6874 57.4267 18.6874 57.4267 18.7031L52.5918 25.0556V25.0713V25.0869C52.5918 25.0869 52.5918 25.1026 52.6075 25.1026H52.6231H54.8606H54.8763C54.8763 25.1026 54.8919 25.1026 54.8919 25.1182V25.1339V25.1495L54.4538 29.9687C54.4538 29.9844 54.4538 29.9844 54.4538 29.9844L54.4694 30H54.4851C54.4851 30 54.5007 30 54.5007 29.9844L59.3356 23.6318V23.6161V23.6005C59.3356 23.6005 59.3356 23.5848 59.3199 23.5848Z" fill="white" fill-opacity="0.36"/>
</svg>
