<svg width="186" height="36" viewBox="0 0 186 36" fill="none" xmlns="http://www.w3.org/2000/svg">
<g clip-path="url(#clip0_1025_1927)">
<path d="M130.323 26.4762C133.38 26.4762 136.044 24.3454 136.716 21.4496H133.172C132.87 22.6076 131.62 23.6042 130.254 23.6042C128.169 23.6042 126.617 22.1219 126.617 19.9435C126.617 17.765 128.169 16.2364 130.254 16.2364C131.667 16.2364 132.779 17.233 133.103 18.1819H136.648C136.022 15.4953 133.381 13.4095 130.231 13.4095C126.339 13.4095 123.235 16.1888 123.235 19.9422C123.235 23.6955 126.317 26.4749 130.324 26.4749L130.323 26.4762ZM114.917 23.6267C112.833 23.6267 111.349 21.9816 111.349 19.9435C111.349 17.9053 112.832 16.2139 114.917 16.2139C117.003 16.2139 118.485 17.8815 118.485 19.9435C118.485 22.0055 116.957 23.6267 114.917 23.6267ZM114.941 26.4762C118.834 26.4762 121.913 23.6267 121.913 19.9435C121.913 16.2602 118.832 13.4108 114.941 13.4108C111.05 13.4108 107.945 16.3065 107.945 19.9435C107.945 23.5804 110.956 26.4762 114.941 26.4762ZM70.8018 26.0831V8.84741H67.3065V26.0818H70.8018V26.0831ZM96.1544 26.0831H107.111V22.9557H99.745V8.84741H96.1544V26.0818V26.0831ZM84.7169 13.9441H81.3579V26.0831H84.8492V19.9647C84.8492 18.0655 85.998 16.4905 87.5888 16.4905C89.1796 16.4905 90.0703 17.7412 90.0703 19.5941V26.0831H93.5418V19.0872C93.5418 15.4503 91.6426 13.6437 88.7005 13.6437C87.0555 13.6437 85.4342 14.5013 84.7155 15.7282V13.9441H84.7169ZM69.6795 19.5504L75.6325 26.0831H79.9709L73.7624 19.5941L79.501 13.9455H75.3413L69.6795 19.5517V19.5504ZM141.746 26.0831V8.84741H138.25V26.0818H141.746V26.0831ZM140.625 19.5504L146.578 26.0831H150.916L144.708 19.5941L150.446 13.9455H146.287L140.625 19.5517V19.5504ZM59.3682 26.4762C62.4255 26.4762 65.0896 24.3454 65.762 21.4496H62.2177C61.9159 22.6076 60.6652 23.6042 59.2994 23.6042C57.2149 23.6042 55.6625 22.1219 55.6625 19.9435C55.6625 17.765 57.2149 16.2364 59.2994 16.2364C60.7129 16.2364 61.8246 17.233 62.1489 18.1819H65.6931C65.0671 15.4953 62.4268 13.4095 59.2769 13.4095C55.3846 13.4095 52.281 16.1888 52.281 19.9422C52.281 23.6955 55.3621 26.4749 59.3696 26.4749L59.3682 26.4762ZM43.9629 23.6267C41.8784 23.6267 40.3948 21.9816 40.3948 19.9435C40.3948 17.9053 41.8771 16.2139 43.9629 16.2139C46.0487 16.2139 47.531 17.8815 47.531 19.9435C47.531 22.0055 46.0024 23.6267 43.9629 23.6267ZM43.9854 26.4762C47.8778 26.4762 50.9575 23.6267 50.9575 19.9435C50.9575 16.2602 47.8765 13.4108 43.9854 13.4108C40.0944 13.4108 36.9895 16.3065 36.9895 19.9435C36.9895 23.5804 40.0004 26.4762 43.9854 26.4762ZM24.1332 26.0831H36.0167V22.7016H28.0719V8.84741H24.1332V26.0818V26.0831Z" fill="white" fill-opacity="0.36"/>
<path d="M162.367 2.47632H150.483V5.85781H158.429V19.7107H162.367V2.47632Z" fill="white" fill-opacity="0.36"/>
</g>
<defs>
<clipPath id="clip0_1025_1927">
<rect width="138.234" height="24" fill="white" transform="translate(24.1332 2.47632)"/>
</clipPath>
</defs>
</svg>
