<svg width="186" height="36" viewBox="0 0 186 36" fill="none" xmlns="http://www.w3.org/2000/svg">
<path d="M134.288 8.85663L134.539 23.1803H134.416L130.257 8.85663H123.44V26.8999H127.95L127.699 12.0774H127.823L132.272 26.8999H138.798V8.85663H134.288ZM48.3578 8.85663L44.9495 27.0875H49.8744L52.3887 10.5009H52.4925L54.9469 27.0875H59.8319L56.4635 8.85663H48.3578ZM75.9196 8.85663L73.6727 22.7613H73.549L71.2821 8.85663H63.8389L63.4837 27.0875H68.0574L68.1811 10.6885H68.221L71.2781 27.0875H75.9116L78.9687 10.6885H79.0925L79.2162 27.0875H83.7899L83.3548 8.85663H75.9196ZM37.2549 21.9112C37.4424 22.3262 37.3786 22.9488 37.3187 23.2402C37.195 23.8628 36.756 24.4654 35.5507 24.4654C34.3853 24.4654 33.7228 23.7989 33.7228 22.8251V21.0571H28.8379V22.45C28.8379 26.5447 32.0586 27.75 35.4908 27.75C38.7754 27.75 41.5172 26.6086 41.9563 23.6153C42.2077 22.0349 42.0201 20.9972 41.9563 20.6221C41.1022 16.7748 34.1419 15.6972 33.663 13.554C33.5991 13.1789 33.5991 12.8277 33.663 12.5762C33.7867 11.9736 34.2017 11.351 35.3033 11.351C36.4048 11.351 37.0074 12.0175 37.0074 12.9913V14.0928H41.5811V12.8237C41.5811 8.85264 37.9852 8.25 35.427 8.25C32.1823 8.25 29.5043 9.33156 29.0254 12.261C28.9017 13.0512 28.8379 13.7975 29.0893 14.7154C29.8156 18.4789 36.3449 19.5804 37.2589 21.9072L37.2549 21.9112ZM96.601 21.9112C96.7885 22.3262 96.7247 22.889 96.6648 23.2402C96.5411 23.8628 96.1021 24.4654 94.8968 24.4654C93.7314 24.4654 93.0689 23.7989 93.0689 22.8251V21.0571H88.1839V22.45C88.1839 26.4809 91.3448 27.7101 94.7731 27.7101C98.0577 27.7101 100.74 26.6086 101.175 23.5515C101.426 21.971 101.238 20.9932 101.175 20.5582C100.448 16.7748 93.5478 15.6333 93.0689 13.554C93.0051 13.1789 93.0051 12.8277 93.0689 12.5762C93.1727 11.9736 93.6077 11.351 94.7092 11.351C95.7469 11.351 96.4134 12.0175 96.4134 12.9913V14.0928H100.923V12.8237C100.923 8.85264 97.3912 8.25 94.8329 8.25C91.5883 8.25 88.9702 9.2677 88.4913 12.261C88.3675 13.0512 88.3675 13.7975 88.5312 14.7154C89.2815 18.4789 95.683 19.5166 96.597 21.9072L96.601 21.9112ZM111.962 24.3457C113.251 24.3457 113.603 23.4916 113.73 23.0167C113.794 22.8291 113.794 22.5178 113.794 22.3302V8.86062H118.428V21.975C118.428 22.3302 118.428 23.0127 118.364 23.1803C118.073 26.6086 115.371 27.7101 112.022 27.7101C108.674 27.7101 105.996 26.6086 105.68 23.1803C105.68 23.0127 105.617 22.3262 105.617 21.975V8.86062H110.25V22.3302C110.25 22.5817 110.25 22.8291 110.314 23.0167C110.314 23.4956 110.689 24.3457 111.954 24.3457H111.962ZM150.024 24.1581C151.377 24.1581 151.792 23.304 151.916 22.8291C151.98 22.6415 151.98 22.3302 151.98 22.1626V19.5246H150.088V16.8426H156.554V21.7276C156.554 22.1027 156.554 22.3302 156.49 22.9528C156.179 26.3013 153.309 27.4627 150.088 27.4627C146.844 27.4627 143.998 26.2973 143.687 22.9528C143.623 22.3302 143.623 22.0988 143.623 21.7276V14.0369C143.623 13.7456 143.687 13.123 143.687 12.8317C144.102 9.4034 146.848 8.30188 150.088 8.30188C153.309 8.30188 156.115 9.4034 156.49 12.8317C156.554 13.3704 156.554 14.0369 156.554 14.0369V14.6595H151.98V13.6219C151.98 13.6219 151.98 13.1869 151.916 12.9354C151.852 12.5204 151.481 11.6064 150.088 11.6064C148.735 11.6064 148.384 12.4605 148.26 12.9354C148.197 13.1869 148.197 13.4982 148.197 13.8095V22.1666C148.197 22.3941 148.197 22.6455 148.26 22.8331C148.26 23.312 148.739 24.1621 150.028 24.1621L150.024 24.1581Z" fill="white" fill-opacity="0.36"/>
</svg>
