<?xml version="1.0" encoding="UTF-8"?>
<svg width="100px" height="100px" viewBox="0 0 100 100" version="1.1" xmlns="http://www.w3.org/2000/svg" xmlns:xlink="http://www.w3.org/1999/xlink">
    <title>icon_facebook_selected</title>
    <g id="页面-1" stroke="none" stroke-width="1" fill="none" fill-rule="evenodd">
        <g id="icon_facebook_selected" fill-rule="nonzero">
            <path d="M49.5799768,0 C22.5648071,0 0.536299234,21.6271756 0.0095587733,48.5931746 L0,49.5652456 C0,76.9618191 22.1975934,99.160098 49.5799768,99.160098 C76.592604,99.160098 98.6235883,77.5307402 99.1503935,50.5668615 L99.1599536,49.5948555 C99.1599536,22.197993 76.9611129,0 49.5799768,0 Z M49.5799768,3.03398058 C75.2855198,3.03398058 96.1260452,23.8736423 96.1260452,49.580049 L96.1167746,50.5224226 C95.6224515,75.8200353 74.9393143,96.1261175 49.5799768,96.1261175 C23.8732334,96.1261175 3.03390835,75.2862166 3.03390835,49.580049 L3.0431778,48.6376046 C3.53744276,23.3378681 24.2181065,3.03398058 49.5799768,3.03398058 Z" id="路径" fill="#D5D5D5"></path>
            <path d="M62.7487263,49.2986639 L54.1733154,49.2986639 L54.1733154,80.7184466 L41.1799481,80.7184466 L41.1799481,49.2986639 L35,49.2986639 L35,38.2585793 L41.1799481,38.2585793 L41.1799481,31.1116024 C41.1799481,26.001538 43.6071326,18 54.2886667,18 L63.9137749,18.0413342 L63.9137749,28.7593963 L56.9282899,28.7593963 C55.7853504,28.7593963 54.1742767,29.3313467 54.1742767,31.7691051 L54.1742767,38.2672306 L63.884937,38.2672306 L62.7487263,49.2986639 L62.7487263,49.2986639 Z" id="路径_1_" fill="#1378F3"></path>
        </g>
    </g>
</svg>