<?xml version="1.0" encoding="UTF-8"?>
<svg width="100px" height="100px" viewBox="0 0 100 100" version="1.1" xmlns="http://www.w3.org/2000/svg" xmlns:xlink="http://www.w3.org/1999/xlink">
    <title>icon_Twitter_selected</title>
    <g id="页面-1" stroke="none" stroke-width="1" fill="none" fill-rule="evenodd">
        <g id="icon_Twitter_selected" fill-rule="nonzero">
            <path d="M49.5793829,0 C22.1979897,0 0,22.1979897 0,49.5793829 C0,76.9607761 22.1979897,99.1587657 49.5793829,99.1587657 C76.9607761,99.1587657 99.1587657,76.9607761 99.1587657,49.5793829 C99.1587657,22.1979897 76.9607761,0 49.5793829,0 Z M49.5793829,3.00480769 C75.3012666,3.00480769 96.153958,23.8574991 96.153958,49.5793829 C96.153958,75.3012666 75.3012666,96.153958 49.5793829,96.153958 C23.8574991,96.153958 3.00480769,75.3012666 3.00480769,49.5793829 C3.00480769,23.8574991 23.8574991,3.00480769 49.5793829,3.00480769 Z" id="路径" fill="#D5D5D5"></path>
            <path d="M25,70.7856049 C25.8664509,70.8950457 26.7511024,70.9543261 27.6448689,70.9543261 C32.838755,70.9634462 37.6176811,69.0892696 41.407046,65.9428398 C36.555162,65.8288385 32.4648149,62.399692 31.0557774,57.6937336 C31.7306633,57.8350948 32.4283507,57.9171757 33.1397175,57.9217352 C34.1520468,57.9262952 35.1278923,57.7894939 36.0581428,57.5250123 C30.9873849,56.4032412 27.1660721,51.5924064 27.1660721,45.8604617 C27.1660721,45.8103013 27.1660721,45.7601408 27.1660721,45.7099804 C28.6617637,46.612868 30.3672179,47.160077 32.1866695,47.2421559 C29.2180839,45.0943788 27.2618275,41.4463448 27.2618275,37.342331 C27.2618275,35.1717565 27.8090326,33.1470978 28.7620845,31.4142806 C34.2295702,38.6419365 42.3966073,43.4390654 51.6032974,44.0364838 C51.4117757,43.1746367 51.3160154,42.2763136 51.3160154,41.3597397 C51.3160154,34.8799247 56.2773413,29.7088068 62.3968634,29.8091276 C65.5843327,29.8638481 68.466274,31.3276168 70.4863673,33.6258751 C73.0126302,33.1425108 75.3838465,32.2122624 77.5225025,30.9126569 C76.6971354,33.6167639 74.9369583,35.8694174 72.6478209,37.2784745 C74.8913632,37.0276724 77.0254539,36.4348673 79.0136385,35.5365364 C77.5270679,37.8484712 75.6483349,39.8685743 73.4823159,41.4828287 C73.5051161,41.9844329 73.5142362,42.4860371 73.5142362,42.9876412 C73.5142362,58.3731741 62.3649075,76.1163446 41.9815551,76.1072413 C35.7297447,76.1117935 29.9020053,74.1509771 25,70.7856734 L25,70.7856049 Z" id="路径" fill="#1BA1F0"></path>
        </g>
    </g>
</svg>