<?xml version="1.0" encoding="UTF-8"?>
<svg width="100px" height="100px" viewBox="0 0 100 100" version="1.1" xmlns="http://www.w3.org/2000/svg" xmlns:xlink="http://www.w3.org/1999/xlink">
    <title>icon_instagram_selected</title>
    <defs>
        <linearGradient x1="50%" y1="0%" x2="50%" y2="100%" id="linearGradient-1">
            <stop stop-color="#4E52C9" offset="0%"></stop>
            <stop stop-color="#AE389A" offset="32.224343%"></stop>
            <stop stop-color="#FDAC55" offset="100%"></stop>
        </linearGradient>
    </defs>
    <g id="页面-1" stroke="none" stroke-width="1" fill="none" fill-rule="evenodd">
        <g id="icon_instagram_selected" fill-rule="nonzero">
            <path d="M49.5793269,0 C22.1960172,0 0,22.1968609 0,49.5841169 C0,76.9633205 22.197545,99.1586538 49.5793269,99.1586538 C76.9626366,99.1586538 99.1586538,76.961793 99.1586538,49.574537 C99.1586538,22.1953333 76.9611089,0 49.5793269,0 Z M49.5793269,3.00480769 C75.3016664,3.00480769 96.1538462,23.8549098 96.1538462,49.574537 C96.1538462,75.3023091 75.3031016,96.1538462 49.5793269,96.1538462 C23.8569874,96.1538462 3.00480769,75.303744 3.00480769,49.5841169 C3.00480769,23.8563448 23.8555522,3.00480769 49.5793269,3.00480769 Z" id="路径" fill="#D5D5D5"></path>
            <path d="M49.9937458,41.6631173 C45.4031442,41.6631173 41.656863,45.4093984 41.656863,50 C41.656863,54.5906016 45.4031442,58.3368827 49.9937458,58.3368827 C54.5843474,58.3368827 58.3306285,54.5906016 58.3306285,50 C58.3306285,45.4093984 54.5843474,41.6631173 49.9937458,41.6631173 L49.9937458,41.6631173 Z M74.9981397,50 C74.9981397,46.5476675 75.0294109,43.1266061 74.8355299,39.6805278 C74.6416489,35.6778234 73.7285319,32.1254232 70.8015544,29.1984456 C67.8683225,26.2652138 64.3221766,25.3583511 60.3194722,25.1644701 C56.8671397,24.9705891 53.4460783,25.0018603 50,25.0018603 C46.5476675,25.0018603 43.1266061,24.9705891 39.6805278,25.1644701 C35.6778234,25.3583511 32.1254232,26.2714681 29.1984456,29.1984456 C26.2652138,32.1316775 25.3583511,35.6778234 25.1644701,39.6805278 C24.9705891,43.1328603 25.0018603,46.5539217 25.0018603,50 C25.0018603,53.4460783 24.9705891,56.8733939 25.1644701,60.3194722 C25.3583511,64.3221766 26.2714681,67.8745768 29.1984456,70.8015544 C32.1316775,73.7347862 35.6778234,74.6416489 39.6805278,74.8355299 C43.1328603,75.0294109 46.5539217,74.9981397 50,74.9981397 C53.4523325,74.9981397 56.8733939,75.0294109 60.3194722,74.8355299 C64.3221766,74.6416489 67.8745768,73.7285319 70.8015544,70.8015544 C73.7347862,67.8683225 74.6416489,64.3221766 74.8355299,60.3194722 C75.0356651,56.8733939 74.9981397,53.4523325 74.9981397,50 Z M49.9937458,62.8274167 C42.8951997,62.8274167 37.1663291,57.0985461 37.1663291,50 C37.1663291,42.9014539 42.8951997,37.1725833 49.9937458,37.1725833 C57.0922918,37.1725833 62.8211625,42.9014539 62.8211625,50 C62.8211625,57.0985461 57.0922918,62.8274167 49.9937458,62.8274167 Z M63.3465174,39.6430024 C61.6891476,39.6430024 60.3507434,38.3045981 60.3507434,36.6472283 C60.3507434,34.9898586 61.6891476,33.6514543 63.3465174,33.6514543 C65.0038872,33.6514543 66.3422915,34.9898586 66.3422915,36.6472283 C66.3360373,38.3108524 65.0038872,39.6430024 63.3465174,39.6430024 Z" id="形状" fill="url(#linearGradient-1)"></path>
        </g>
    </g>
</svg>