<?xml version="1.0" encoding="UTF-8"?>
<svg width="100px" height="100px" viewBox="0 0 100 100" version="1.1" xmlns="http://www.w3.org/2000/svg" xmlns:xlink="http://www.w3.org/1999/xlink">
    <title>icon_tiktok_selected</title>
    <g id="页面-1" stroke="none" stroke-width="1" fill="none" fill-rule="evenodd">
        <g id="套餐页面第四期（有分隔线）" transform="translate(-264.000000, -892.000000)" fill-rule="nonzero">
            <g id="icon_tiktok_selected" transform="translate(264.000000, 892.000000)">
                <path d="M49.5793269,0 C22.1960172,0 0,22.1968609 0,49.5841169 C0,76.9633205 22.197545,99.1586538 49.5793269,99.1586538 C76.9626366,99.1586538 99.1586538,76.961793 99.1586538,49.574537 C99.1586538,22.1953333 76.9611089,0 49.5793269,0 Z M49.5793269,3.00480769 C75.3016664,3.00480769 96.1538462,23.8549098 96.1538462,49.574537 C96.1538462,75.3023091 75.3031016,96.1538462 49.5793269,96.1538462 C23.8569874,96.1538462 3.00480769,75.303744 3.00480769,49.5841169 C3.00480769,23.8563448 23.8555522,3.00480769 49.5793269,3.00480769 Z" id="路径" fill="#D5D5D5"></path>
                <g id="编组-6" transform="translate(25.961538, 23.076923)">
                    <path d="M23.9239622,13.099228 C23.9626032,8.73281416 23.9239622,4.3663867 23.9626032,-1.74095674e-13 L32.8886186,-1.74095674e-13 C32.8499777,0.772818658 32.9659004,1.54563732 33.0818225,2.27980757 L26.5128775,2.27980757 L26.5128775,37.7521147 C26.5515184,39.2591104 26.1651098,40.7660993 25.4309327,42.0798937 C24.2717047,44.0892168 22.107822,45.4802877 19.789366,45.6734957 C18.3210119,45.7894185 16.814023,45.518932 15.5002287,44.784759 C14.4955671,44.2437873 13.6454653,43.4709714 12.9885714,42.5435863 C15.268379,43.8187323 18.2437288,43.7028143 20.446287,42.2731005 C22.5715349,40.9593127 23.9626058,38.4862971 23.9626058,35.9359983 C23.923965,28.3237569 23.923965,20.7115156 23.923965,13.0992742 L23.9239622,13.099228 Z M38.6461516,10.5875654 C39.882656,11.3603894 41.2737268,11.9786417 42.7034393,12.2877678 C43.5535412,12.4809718 44.4036363,12.5582536 45.2923798,12.5582536 L45.2923798,14.5675766 C42.7420809,13.987964 40.3849901,12.5582536 38.6461516,10.5875654 L38.6461516,10.5875654 Z" id="形状" fill="#25F4EE"></path>
                    <path d="M7.84935048,21.7161241 C11.0565432,19.706801 14.9592985,18.8953408 18.6687981,19.4363165 L18.6687981,21.5615644 C17.6641365,21.6002054 16.6981166,21.7161282 15.6934551,21.9093322 C13.2977227,22.4116637 11.0179083,23.4163279 9.04722684,24.8846752 C6.92197896,26.4689474 5.29906522,28.6328369 4.17847884,31.0285693 C3.09653408,33.3083769 2.55556509,35.8200341 2.5942067,38.3703397 C2.5942067,41.1524814 3.36702537,43.8573399 4.680813,46.2917004 C5.29906657,47.4122868 5.99460065,48.4942315 6.92198575,49.3829682 C5.02858072,48.0691806 3.44430859,46.2917004 2.2850806,44.2823773 C0.700808464,41.6161604 -0.0720101938,38.486251 0.00527303039,35.3563619 C0.121195829,32.4969369 0.932651349,29.6761536 2.43964705,27.2031108 C3.75343469,25.0005796 5.64683972,23.0685398 7.84936407,21.7161105 L7.84935048,21.7161241 Z" id="路径" fill="#25F4EE"></path>
                    <path d="M26.5129299,2.2797804 L33.1205165,2.2797804 C33.3523614,3.55492643 33.816052,4.75279603 34.3956625,5.91202402 C35.3230408,7.68950421 36.6368353,9.27377633 38.3370323,10.3170795 C38.4529551,10.3943614 38.5302363,10.4716432 38.6075181,10.5875654 C40.3463567,12.5582468 42.7034475,13.9879593 45.2923879,14.5675766 C45.3310288,16.8860259 45.2923879,19.2431234 45.2923879,21.5615794 C40.9259741,21.6002203 36.5595467,20.2091502 33.0045726,17.6588513 C33.0045726,23.2231348 33.0045726,28.7874182 33.0432136,34.3517017 C33.0432136,35.0858787 33.0818544,35.8200558 33.0432136,36.5928745 C32.8500095,39.297733 31.9999104,41.9639567 30.6474811,44.321061 C29.4882532,46.3690258 27.903981,48.1851475 26.010576,49.5762184 C23.576202,51.3923402 20.5622174,52.3970017 17.5482056,52.4742849 C16.0025683,52.5129258 14.4569377,52.4356441 12.949942,52.0878763 C10.8246941,51.6241858 8.81537102,50.7354471 7.03789082,49.4989358 L6.92196802,49.383013 C6.03323132,48.4942763 5.29905427,47.4123316 4.68079527,46.2917452 C3.36700763,43.8960128 2.59418897,41.1525127 2.59418897,38.3703846 C2.55554811,35.8587273 3.09652042,33.3084353 4.17846111,31.0286141 C5.29904748,28.6328817 6.96060285,26.4689922 9.04720914,24.88472 C11.0178906,23.4163659 13.297705,22.4117044 15.6934374,21.909377 C16.6594573,21.716173 17.6641188,21.6002502 18.6687804,21.5616093 C18.7074213,22.450346 18.6687804,23.3390895 18.7074213,24.1891846 L18.7074213,28.7101649 C17.5868349,28.3237563 16.3503305,28.3237563 15.1911025,28.5942421 C13.8000316,28.9033689 12.486244,29.5216204 11.4042992,30.4490055 C10.7474047,31.0286182 10.1677948,31.7241516 9.78138548,32.4969702 C9.08585005,33.8107579 8.85400717,35.3563952 9.00856682,36.8247493 C9.16313053,38.2544618 9.78138548,39.6455326 10.7087638,40.7274774 C11.3270173,41.5002961 12.1384763,42.0799066 12.9499365,42.6208824 C13.606831,43.5482607 14.4569322,44.3210794 15.4615938,44.8620552 C16.7753814,45.5575906 18.2823771,45.8667167 19.7507311,45.7507919 C22.0691804,45.5962281 24.2330699,44.1665198 25.3922978,42.1571899 C26.1264749,40.8434022 26.5128842,39.3364065 26.4742426,37.8294108 C26.5515245,25.9280116 26.5128835,14.1039092 26.5128835,2.2797804 L26.5129299,2.2797804 Z" id="路径" fill="#2F3032"></path>
                    <path d="M33.1205117,2.2797804 C33.8933352,2.31842126 34.6661538,2.2797804 35.4776073,2.2797804 C35.4776073,4.86872087 36.2890676,7.45765454 37.7960565,9.58290243 C37.9892541,9.85338834 38.1824651,10.0852339 38.3756691,10.3170795 C36.6754721,9.27377633 35.3230429,7.68950422 34.4342994,5.91202402 C33.8546868,4.79143764 33.3909962,3.55493322 33.1205117,2.2797804 L33.1205117,2.2797804 Z M45.2923866,14.5675712 C46.1424885,14.7607997 46.9925836,14.8380816 47.8813271,14.8380816 L47.8813271,23.8413938 C43.4762716,23.8800347 39.071189,22.4116813 35.4776345,19.8227476 L35.4776345,37.6748464 C35.5162753,39.0272756 35.4003526,40.3797049 35.0912259,41.6934925 C34.241124,45.7121387 31.8453916,49.3443823 28.5222809,51.7014595 C26.7448007,52.9766056 24.7354776,53.8653491 22.6488713,54.3290348 C20.0985724,54.9086474 17.4323555,54.8700065 14.9206847,54.213112 C11.9453417,53.4402934 9.16319993,51.778738 7.0766208,49.4989304 C8.85410101,50.7740765 10.8634241,51.6241784 12.988672,52.0878709 C14.4956677,52.4356386 16.0412982,52.5129204 17.5869355,52.4742795 C20.6009201,52.3969976 23.6149116,51.3923348 26.0493059,49.576213 C27.942711,48.1851421 29.4883415,46.3690203 30.6862111,44.3210556 C32.0386404,41.9639648 32.8887423,39.2977411 33.0819435,36.5928691 C33.1205843,35.858692 33.1205843,35.124515 33.0819435,34.3516963 C33.0433026,28.7874128 33.0433026,23.2231294 33.0433026,17.6588459 C36.598263,20.2091448 40.9646633,21.6002156 45.3311179,21.561574 C45.2924771,19.2431248 45.3311179,16.8860272 45.2924771,14.5675712 L45.2923866,14.5675712 Z" id="形状" fill="#FE2C55"></path>
                    <path d="M18.7074465,21.5229134 C19.5575484,21.5229134 20.4462851,21.5615909 21.296387,21.6775131 L21.296387,30.9126478 C20.0598826,30.4875982 18.6688117,30.4489573 17.3936589,30.7580841 C14.9592848,31.2990558 12.9113202,33.1538165 12.0612183,35.5109073 C11.2111164,37.8293565 11.5588868,40.5342218 13.0272382,42.5049101 C12.1771363,42.0025785 11.4043244,41.3843237 10.7860654,40.611505 C9.85868712,39.5295603 9.2404281,38.1384894 9.08586846,36.7087769 C8.93130474,35.2404228 9.16315036,33.6947923 9.85868712,32.3809978 C10.2450958,31.6081792 10.824707,30.9126437 11.4816009,30.3330332 C12.5635456,29.4056549 13.9159749,28.8260374 15.2684041,28.4782697 C16.4276321,28.2077839 17.6641365,28.2077839 18.7847229,28.5941925 L18.7847229,24.0732122 C18.7074411,23.3003936 18.7460821,22.4116569 18.7074411,21.5229134 L18.7074465,21.5229134 Z" id="路径" fill="#FE2C55"></path>
                </g>
            </g>
        </g>
    </g>
</svg>